#!OML:ASF G:\JayActor3\Patient Classification 1\Patient 1\Session 2\male.ASF
:FULLY-SPECIFIED
:DEGREES
2536
root 30.9747 16.6265 -6.59998 1805.61 -114.172 -730.413
lowerback -0.727781 -0.574471 -1.995
upperback -2.39474 -0.804141 0.203777
thorax -2.01742 -0.375354 1.33532
lowerneck -6.78023 11.998 7.75182
upperneck 19.3441 14.5576 2.84801
head 7.44653 7.64881 0.946855
rclavicle -5.51627e-014 -1.74931e-014
rhumerus -56.8222 28.5015 -109.515
rradius 103.776
rwrist -17.8534
rhand 10.4486 6.78812
rfingers 7.12502
rthumb 35.5517 -19.6373
lclavicle -5.51627e-014 -1.74931e-014
lhumerus -23.4609 -42.2506 99.7451
lradius 141.626
lwrist 38.3131
lhand -5.6036 6.65833
lfingers 7.12502
lthumb 20.2134 35.6266
rfemur -22.9232 9.15776 13.9595
rtibia 67.6661
rfoot -18.2532 -7.21083
rtoes -1.52217
lfemur 4.46683 10.7863 -29.0972
ltibia 16.1873
lfoot -12.5705 1.19126
ltoes -1.42458
2537
root 30.9109 16.6153 -6.60225 1805.78 -114.141 -730.537
lowerback -0.674253 -0.613118 -2.03392
upperback -2.34786 -0.854695 0.231642
thorax -1.99645 -0.399567 1.38647
lowerneck -6.71936 12.0694 7.78223
upperneck 19.4001 14.662 2.8057
head 7.46286 7.69689 0.938313
rclavicle 8.24956e-015 6.36111e-015
rhumerus -56.7529 28.4836 -109.438
rradius 103.788
rwrist -17.8431
rhand 10.4773 6.7833
rfingers 7.12502
rthumb 35.5789 -19.6356
lclavicle 8.24956e-015 6.36111e-015
lhumerus -23.3226 -42.3744 99.7676
lradius 141.554
lwrist 38.2424
lhand -5.53187 6.65265
lfingers 7.12502
lthumb 20.2823 35.6136
rfemur -23.6387 9.30142 14.1805
rtibia 66.8175
rfoot -18.8275 -7.29704
rtoes -1.72041
lfemur 4.60989 10.7634 -29.2174
ltibia 16.2503
lfoot -12.7681 1.21649
ltoes -1.7356
2538
root 30.8468 16.6052 -6.60485 1805.92 -114.113 -730.638
lowerback -0.624225 -0.645516 -2.0649
upperback -2.29572 -0.896576 0.266646
thorax -1.96834 -0.419641 1.44035
lowerneck -6.6904 12.1384 7.78916
upperneck 19.465 14.7621 2.77361
head 7.48485 7.74237 0.938247
rclavicle 2.52457e-014 4.77083e-015
rhumerus -56.6858 28.4586 -109.355
rradius 103.812
rwrist -17.8248
rhand 10.5046 6.78029
rfingers 7.12502
rthumb 35.6048 -19.6324
lclavicle 2.52457e-014 4.77083e-015
lhumerus -23.169 -42.5177 99.7937
lradius 141.473
lwrist 38.1133
lhand -5.53544 6.63487
lfingers 7.12502
lthumb 20.2789 35.5962
rfemur -24.3215 9.45952 14.4074
rtibia 65.879
rfoot -19.2841 -7.25685
rtoes -1.96974
lfemur 4.77593 10.7447 -29.3249
ltibia 16.2635
lfoot -12.942 1.23757
ltoes -2.09314
2539
root 30.7824 16.5967 -6.60766 1806.04 -114.091 -730.712
lowerback -0.575264 -0.670622 -2.08452
upperback -2.24027 -0.92848 0.309349
thorax -1.93657 -0.434949 1.49564
lowerneck -6.68398 12.2054 7.77837
upperneck 19.5411 14.8591 2.74752
head 7.51238 7.78569 0.944151
rclavicle 2.64384e-014 -2.14687e-014
rhumerus -56.6224 28.4397 -109.272
rradius 103.838
rwrist -17.8056
rhand 10.5161 6.78081
rfingers 7.12502
rthumb 35.6157 -19.6292
lclavicle 2.64384e-014 -2.14687e-014
lhumerus -23.0079 -42.6699 99.8269
lradius 141.391
lwrist 37.9557
lhand -5.59196 6.61052
lfingers 7.12502
lthumb 20.2246 35.5776
rfemur -24.9677 9.6328 14.642
rtibia 64.8585
rfoot -19.6386 -7.13158
rtoes -2.31901
lfemur 4.97756 10.7311 -29.4191
ltibia 16.2114
lfoot -13.0829 1.26043
ltoes -2.47141
2540
root 30.7176 16.5898 -6.61058 1806.14 -114.076 -730.753
lowerback -0.526752 -0.690699 -2.09079
upperback -2.18052 -0.953389 0.360847
thorax -1.90041 -0.447013 1.55237
lowerneck -6.69737 12.2737 7.75234
upperneck 19.6279 14.9582 2.7236
head 7.54545 7.82924 0.954858
rclavicle -1.55052e-014 -4.77083e-015
rhumerus -56.5552 28.4381 -109.193
rradius 103.859
rwrist -17.7918
rhand 10.5117 6.7775
rfingers 7.12502
rthumb 35.6115 -19.6335
lclavicle -1.55052e-014 -4.77083e-015
lhumerus -22.8273 -42.8104 99.8533
lradius 141.309
lwrist 37.8153
lhand -5.65837 6.58848
lfingers 7.12502
lthumb 20.1607 35.5623
rfemur -25.5744 9.82115 14.8873
rtibia 63.7652
rfoot -19.9155 -6.94752
rtoes -2.68357
lfemur 5.2207 10.719 -29.4987
ltibia 16.0855
lfoot -13.1858 1.28457
ltoes -2.86122
2541
root 30.6523 16.5847 -6.61368 1806.2 -114.066 -730.761
lowerback -0.476576 -0.706391 -2.08249
upperback -2.11715 -0.972271 0.419217
thorax -1.86178 -0.456335 1.60792
lowerneck -6.72781 12.3435 7.71999
upperneck 19.7225 15.0597 2.69701
head 7.58383 7.87323 0.967432
rclavicle 1.43125e-014 -5.56597e-015
rhumerus -56.4961 28.4529 -109.117
rradius 103.883
rwrist -17.7868
rhand 10.4995 6.77556
rfingers 7.12502
rthumb 35.6 -19.6382
lclavicle 1.43125e-014 -5.56597e-015
lhumerus -22.6266 -42.9382 99.8683
lradius 141.232
lwrist 37.7032
lhand -5.71741 6.56525
lfingers 7.12502
lthumb 20.104 35.5451
rfemur -26.1375 10.0213 15.1456
rtibia 62.609
rfoot -20.1294 -6.73518
rtoes -3.02975
lfemur 5.50902 10.702 -29.5646
ltibia 15.883
lfoot -13.2473 1.31682
ltoes -3.24545
2542
root 30.5867 16.581 -6.61683 1806.23 -114.062 -730.736
lowerback -0.425283 -0.71631 -2.05472
upperback -2.06022 -0.983623 0.479174
thorax -1.83097 -0.462172 1.65418
lowerneck -6.73972 12.4142 7.6955
upperneck 19.8204 15.1626 2.67048
head 7.62085 7.9182 0.978013
rclavicle 1.56046e-014 1.35174e-014
rhumerus -56.4602 28.4696 -109.059
rradius 103.908
rwrist -17.7927
rhand 10.4895 6.77039
rfingers 7.12502
rthumb 35.5905 -19.6457
lclavicle 1.56046e-014 1.35174e-014
lhumerus -22.4419 -43.0579 99.8909
lradius 141.165
lwrist 37.6166
lhand -5.78123 6.54783
lfingers 7.12502
lthumb 20.0426 35.5341
rfemur -26.6594 10.2277 15.4164
rtibia 61.4008
rfoot -20.2878 -6.51918
rtoes -3.2783
lfemur 5.83938 10.6757 -29.6199
ltibia 15.6063
lfoot -13.2643 1.36462
ltoes -3.61513
2543
root 30.5206 16.5789 -6.62008 1806.24 -114.061 -730.691
lowerback -0.373125 -0.722168 -2.01254
upperback -2.00997 -0.989769 0.537929
thorax -1.80797 -0.465602 1.69117
lowerneck -6.72314 12.4866 7.68866
upperneck 19.9076 15.2692 2.63607
head 7.65172 7.9654 0.981783
rclavicle -7.05686e-015 -3.97569e-015
rhumerus -56.4428 28.4923 -109.017
rradius 103.932
rwrist -17.8135
rhand 10.4873 6.76167
rfingers 7.12502
rthumb 35.5884 -19.6549
lclavicle -7.05686e-015 -3.97569e-015
lhumerus -22.2729 -43.1656 99.9168
lradius 141.107
lwrist 37.5562
lhand -5.83398 6.5299
lfingers 7.12502
lthumb 19.9919 35.5215
rfemur -27.1411 10.4295 15.6952
rtibia 60.1501
rfoot -20.3909 -6.33325
rtoes -3.43377
lfemur 6.21012 10.6344 -29.6712
ltibia 15.2579
lfoot -13.2463 1.43406
ltoes -3.98622
2544
root 30.4542 16.5779 -6.62342 1806.24 -114.061 -730.64
lowerback -0.322808 -0.724187 -1.95966
upperback -1.96485 -0.990959 0.591782
thorax -1.78968 -0.466746 1.7171
lowerneck -6.68688 12.5588 7.70532
upperneck 19.9868 15.3767 2.58686
head 7.67994 8.01332 0.976311
rclavicle 2.88238e-015 7.15625e-015
rhumerus -56.4226 28.5149 -108.985
rradius 103.946
rwrist -17.8489
rhand 10.499 6.75137
rfingers 7.12502
rthumb 35.5995 -19.6625
lclavicle 2.88238e-015 7.15625e-015
lhumerus -22.1174 -43.2672 99.9438
lradius 141.057
lwrist 37.5155
lhand -5.8886 6.51952
lfingers 7.12502
lthumb 19.9394 35.5166
rfemur -27.5864 10.6133 15.9748
rtibia 58.8664
rfoot -20.443 -6.18798
rtoes -3.48766
lfemur 6.61963 10.5759 -29.7252
ltibia 14.8386
lfoot -13.194 1.5247
ltoes -4.33668
